<svg viewBox="0 0 1024 1024" xmlns="http://www.w3.org/2000/svg" width="200" height="200"><path d="M522.72466 272.2c-28 115-26.2 108.8-51.6 214-3.2 13-8.2 16.8-21.4 17h-28.8c-11.6-0.2-16.4-3.2-19.8-14.6-24.6-78.8-57.6-188.2-79.8-261.4-8.2-27-2.8-26.4 18.6-25.8 7.4 0.2 14.6 0 22 0 10.2 0.2 15.4 4 18.2 14.2 7.2 25.8 12 45.6 53.2 208.2 0.8 3.2 1.8 6.2 2.8 9.2h2.2c1-4 2.2-7.8 3.2-11.8 15.6-65.8 31-131.8 46.6-197.6 4.8-20.4 13.4-22.4 34-22.4h15.2c13.8 0.2 18 3 21.4 16.6 12 46.8 47 203.6 53.4 220.8 10.2-36.6-3.6 15.8 57-218 4.2-16.2 8.2-19.4 24.6-19.4h25.4c10.8 0.2 14 3.6 11.4 14.2-4.8 19-5.8 19.8-82.6 265.8-6.2 19.8-8.4 21.6-29.2 21.6h-21.2c-14.6 0-18.4-2.6-22-16.8-8.6-32.4-46.6-191.4-52.8-213.8zM251.12466 494.6c8.4 11.6 16.2 12.6 28.2 4.8l12.6-8.4c13.6-9 14.6-12.6 7.2-27-8.6-16.8-12.8-34.6-12.6-53.8 0-6.2 1.2-111.4-1.8-133.6-5.4-38.6-25-65.6-63.4-77.4-21.4-6.8-43.4-6.6-65.4-6-30.2 0.8-58.8 9.2-85.6 22.8-3.6 1.8-7.4 6.2-8.2 9.8-1.6 7.8-2.2 16.2-1.4 24.2 1.2 11.8 5.2 14 16.4 10.2 10.2-3.4 20-7.8 30.2-10.8 29-8.8 58.4-12.8 88.2-3.4 14.2 4.4 23.4 13.8 28.6 27.6 6 15.8 4.8 32.2 4.8 48.4 0 11-0.2 11-11 9-27.8-5.2-55.4-10-83.8-6.2-30.4 4.2-57.2 14.6-76.4 40-18.2 24-20 51.2-14.8 79 5.6 30 23.6 51.4 52.8 60.8 41.2 13.4 80.2 6.6 115.4-19 7.6-5.6 14.4-12.4 22.2-19 6.2 10 11.6 19.4 17.8 28z m-30.6-123.2c6 0.8 9 3.8 8.6 10.2-0.4 7.6 0.2 15.2-0.6 22.8-2.4 23.4-15.4 39.4-35.8 49.8-16.4 8.4-33.8 11.6-52.2 10-30.4-2.6-42-26.2-39.2-52.6C103.92466 386.4 118.32466 372.4 144.32466 368c27.6-4.8 32-2.2 76.2 3.4z m697.6 130.2c42.6-17.2 65.8-52.4 58.4-100-4.4-29.2-23.6-48.4-50.4-59-29.4-11.8-67.6-20.6-96.2-36.4-8.8-4.8-14.8-12.6-15.2-23.8-0.8-22.2 8.4-34.4 30.8-39.6 18.6-4.2 37.6-4.4 56.2-0.8 14.6 2.8 28.6 8.4 42.8 12.6 5.6 1.8 11.8 4.2 15.6-3.2 7.6-14.6 0.8-37.4-14.6-43.6-45-18-91-23.2-136.4-3.2-29.2 12.8-49.2 34.8-52 68.4-3.2 38.6 13.8 66.8 48.2 83.4 15.4 7.4 32.2 11.8 48.4 17.8 16.2 6 32.4 11.6 48.2 18.2 24.6 10.6 23.2 48.4 2.4 60-55.4 30.6-129.8-4.8-138.4-7.6-6.6-2.2-10.6 0.4-12.6 7.4-6 22.6 1.4 37.6 23.2 45.4 43.4 15.8 99.2 21 141.6 4zM592.32466 827c101.6-11.6 197.4-41.6 285.4-94 16-9.4 31-20.6 46.2-31.4 14.6-10.4 6.4-36.8-22.6-24.4-108.8 46.4-222.4 72.2-340.4 77.8-61 3-121.6-0.6-182.2-9.4-126.2-18.4-244.8-58.4-355.2-122.4-4.2-2.4-8.4-5-13-6-9.8-2.2-15.4 9.4-4.8 19.4 48 44.2 100.6 81.6 158.2 111.4 107.4 55.4 221 85.4 342.4 84 28.8-1.6 57.6-1.8 86-5z m349.4-184.4c29.6 1.6 38.8 11.8 31.4 40.4-7.6 29.6-18.6 58.4-27.8 87.6-1.8 5.8-8.4 12.6-1.6 17.6 7.4 5.2 13-2 18-6.6 20.4-19 34.8-42 45-67.6 10.8-26.8 18.6-54.4 17.4-83.8-0.4-12.4-3.6-17.6-15.6-21-10.8-3-22-5.6-33-6.4-43.2-3.6-85 1-124 21.2-6.2 3.2-12 7.4-17.4 11.8-2.2 1.8-6.4 10.6 4.8 12.2 3.8 0.6 7.8-0.2 11.8-0.6 33.8-3.2 57.2-6.6 91-4.8z"></path></svg>