<svg viewBox="0 0 1024 1024" xmlns="http://www.w3.org/2000/svg" width="200" height="200"><path d="M512 534.755556c-142.222222 0-256-113.777778-256-256s113.777778-256 256-256 256 113.777778 256 256-113.777778 256-256 256z m0-455.111112c-110.933333 0-199.111111 88.177778-199.111111 199.111112s88.177778 199.111111 199.111111 199.111111 199.111111-88.177778 199.111111-199.111111-88.177778-199.111111-199.111111-199.111112zM256 1001.244444c-133.688889 0-241.777778-108.088889-241.777778-238.933333s108.088889-238.933333 241.777778-238.933333 241.777778 108.088889 241.777778 238.933333-108.088889 238.933333-241.777778 238.933333z m0-423.822222c-102.4 0-184.888889 82.488889-184.888889 182.044445s82.488889 182.044444 184.888889 182.044444 184.888889-82.488889 184.888889-182.044444-82.488889-182.044444-184.888889-182.044445zM768 1001.244444c-133.688889 0-241.777778-108.088889-241.777778-238.933333s108.088889-238.933333 241.777778-238.933333 241.777778 108.088889 241.777778 238.933333-108.088889 238.933333-241.777778 238.933333z m0-423.822222c-102.4 0-184.888889 82.488889-184.888889 182.044445s82.488889 182.044444 184.888889 182.044444 184.888889-82.488889 184.888889-182.044444-82.488889-182.044444-184.888889-182.044445z"></path></svg>