<svg viewBox="0 0 1024 1024" xmlns="http://www.w3.org/2000/svg" width="200" height="200"><path d="M588.081239 453.491472h274.046472v47.634623h-274.028424v-47.634623m0 0z m0 104.810608h271.622027v47.634623H588.081239v-47.616575m0 0z m0-207.238883h274.046472v47.640639h-274.028424v-47.640639m0 0zM348.313889 593.321168A121.793753 121.793753 0 1 1 468.435196 471.533432a121.07785 121.07785 0 0 1-120.121307 121.787736m0-203.484904a81.715216 81.715216 0 1 0 80.01269 81.697168 80.975249 80.975249 0 0 0-80.01269-81.697168m0 0z m160.187812 261.051929a20.033252 20.033252 0 0 1-17.175657-9.673715L425.715639 532.51754a20.057316 20.057316 0 0 1 34.345296-20.731108l65.592358 108.678891a20.057316 20.057316 0 0 1-17.16964 30.404822m0 0z m0 0a20.454372 20.454372 0 0 1-4.993273-0.601599l-65.610406-16.778601a20.045284 20.045284 0 1 1 9.932402-38.845259l65.616422 16.778601a20.045284 20.045284 0 0 1-4.945145 39.464906m0 0z m-83.068814 39.140042a20.695012 20.695012 0 0 1-5.979896-0.902399 20.069348 20.069348 0 0 1-13.169006-25.110749l17.446376-55.906611a20.057316 20.057316 0 0 1 38.291788 11.947759l-17.446376 55.948723a20.039268 20.039268 0 0 1-19.130854 14.053357m0 0z m0 0a20.003172 20.003172 0 0 1-17.416296-10.10085L354.582552 586.432858a20.0513 20.0513 0 0 1 34.820561-19.882853l53.397942 93.530623a20.033252 20.033252 0 0 1-7.45983 27.330651 19.798629 19.798629 0 0 1-9.914354 2.647036m0 0z m-237.379002-39.140042a20.069348 20.069348 0 0 1-17.16964-30.410838L236.488635 511.816512a20.0513 20.0513 0 0 1 34.345297 20.695012l-65.60439 108.64881a19.967077 19.967077 0 0 1-17.175657 9.709811m0 0z m0 0a20.039268 20.039268 0 0 1-4.939129-39.452874l65.57431-16.772585a20.045284 20.045284 0 1 1 9.92037 38.845259l-65.574309 16.778601a20.273892 20.273892 0 0 1-4.975226 0.601599m0 0z m83.020686 39.140042a20.033252 20.033252 0 0 1-19.124837-14.065388l-17.446376-55.948723a20.045284 20.045284 0 1 1 38.267723-11.94776l17.446376 55.912627a20.039268 20.039268 0 0 1-13.169006 25.104734 19.798629 19.798629 0 0 1-5.97388 0.91443m0 0z m0 0a19.792613 19.792613 0 0 1-9.92037-2.647036 20.027236 20.027236 0 0 1-7.477878-27.330651l53.415991-93.518591a20.045284 20.045284 0 0 1 34.814544 19.882853l-53.422007 93.518591a19.930981 19.930981 0 0 1-17.41028 10.094834m0 0z m635.565462 158.912422h-789.298114a74.724633 74.724633 0 0 1-74.598298-74.869017V249.964456a74.724633 74.724633 0 0 1 74.598298-74.863001h789.298114a74.724633 74.724633 0 0 1 74.598298 74.863001v524.059056a74.724633 74.724633 0 0 1-74.598298 74.869017z m31.072598-586.450906a41.510343 41.510343 0 0 0-41.432135-41.588551H133.903944a41.510343 41.510343 0 0 0-41.432135 41.588551v497.029205a41.510343 41.510343 0 0 0 41.432135 41.588551h762.400616a41.510343 41.510343 0 0 0 41.432135-41.588551V262.441623z"></path></svg>