<svg t="1582615868869" viewBox="0 0 1024 1024" xmlns="http://www.w3.org/2000/svg" width="200" height="200"><path d="M508.8 663.2c-8.8 0-18.4-2.4-26.4-7.2L52.8 389.6c-14.4-8.8-23.2-24.8-23.2-42.4 0-17.6 8.8-32.8 23.2-42.4L483.2 39.2c16-9.6 36-9.6 52 0l429.6 265.6c14.4 8.8 23.2 24.8 23.2 42.4 0 17.6-8.8 32.8-23.2 42.4L535.2 656c-8 4.8-16.8 7.2-26.4 7.2zM106.4 347.2l402.4 248.8L912 347.2 508.8 98.4 106.4 347.2z m825.6-12c-0.8 0-0.8 0 0 0z"></path><path d="M508.8 832.8c-8.8 0-18.4-2.4-26.4-7.2L28.8 544.8l33.6-54.4 446.4 276 446.4-276 33.6 54.4-454.4 280.8c-7.2 4.8-16 7.2-25.6 7.2z"></path><path d="M508.8 1002.4c-8.8 0-18.4-2.4-26.4-7.2L28.8 714.4l33.6-54.4L508.8 936l446.4-276 33.6 54.4-454.4 280.8c-7.2 4.8-16 7.2-25.6 7.2z"></path><path d="M32 717.6c-16-9.6-21.6-29.6-12-44.8 8.8-15.2 28.8-20.8 44.8-12 15.2 8.8 20.8 28.8 12 44.8-9.6 15.2-29.6 20.8-44.8 12zM31.2 547.2c-16-9.6-21.6-28.8-12.8-44.8 8.8-15.2 28.8-20.8 44-12h0.8c15.2 8.8 20.8 28.8 12 44-8.8 16.8-28 21.6-44 12.8zM986.4 546.4l-0.8 0.8c-15.2 9.6-34.4 4.8-44-10.4-9.6-15.2-4.8-34.4 10.4-44l0.8-0.8c15.2-9.6 34.4-4.8 44 10.4 9.6 15.2 4.8 34.4-10.4 44zM990.4 713.6l-0.8 0.8c-15.2 9.6-34.4 4.8-44-10.4-9.6-15.2-4.8-34.4 10.4-44l0.8-0.8c15.2-9.6 34.4-4.8 44 10.4 8.8 15.2 4 35.2-10.4 44z"></path></svg>