<?xml version="1.0" standalone="no"?><!DOCTYPE svg PUBLIC "-//W3C//DTD SVG 1.1//EN" "http://www.w3.org/Graphics/SVG/1.1/DTD/svg11.dtd"><svg t="1606703172633" class="icon" viewBox="0 0 1024 1024" version="1.1" xmlns="http://www.w3.org/2000/svg" p-id="2713" xmlns:xlink="http://www.w3.org/1999/xlink" width="200" height="200"><defs><style type="text/css"></style></defs><path d="M513 98.2c-229.2 0-415 185.8-415 415s185.8 415 415 415 415-185.8 415-415-185.8-415-415-415z m248.2 663.2C694.9 827.7 606.8 864.2 513 864.2s-181.9-36.5-248.2-102.8C198.5 695.1 162 607 162 513.2c0-93.8 36.5-181.9 102.8-248.2 66.3-66.3 154.4-102.8 248.2-102.8S694.9 198.7 761.2 265C827.5 331.3 864 419.5 864 513.2c0 93.8-36.5 181.9-102.8 248.2z" p-id="2714"></path><path d="M512 304.1c-70.2 0-127.2 57.1-127.2 127.2 0 17.7 14.3 32 32 32s32-14.3 32-32c0-34.9 28.4-63.2 63.2-63.2s63.2 28.4 63.2 63.2c0 31-22.5 56.9-52 62.2-1.7 0.3-3.3 0.5-5 0.7-21.4 4.1-37.6 22.7-38.2 45.1v71.8c0 17.7 14.3 32 32 32s32-14.3 32-32v-56.7c10.8-2.8 21-7 30.4-12.3 38.7-21.8 64.8-63.3 64.8-110.8 0-70.1-57-127.2-127.2-127.2zM512 655.9c-0.9 0-1.8 0-2.7 0.1-1.2 0.1-2.3 0.3-3.4 0.5-14.5 2.8-25.5 15.4-25.9 30.6v1.6c0.4 17.3 14.6 31.2 32 31.2 4 0 7.8-0.7 11.4-2.1 11.7-4.5 20.2-15.6 20.6-28.9v-1.1c0-17.6-14.3-31.9-32-31.9z" p-id="2715"></path></svg>