<svg viewBox="0 0 1024 1024" xmlns="http://www.w3.org/2000/svg" width="200" height="200"><path d="M866.722909 303.895273a396.916364 396.916364 0 0 0-146.548364-146.571637A105.099636 105.099636 0 0 1 802.909091 116.363636 104.773818 104.773818 0 0 1 907.636364 221.090909a104.517818 104.517818 0 0 1-40.913455 82.804364M523.636364 826.181818c-179.665455 0-325.818182-146.152727-325.818182-325.818182 0-179.642182 146.152727-325.818182 325.818182-325.818181s325.818182 146.176 325.818181 325.818181c0 179.665455-146.152727 325.818182-325.818181 325.818182M139.636364 221.090909C139.636364 163.351273 186.600727 116.363636 244.363636 116.363636c32.768 0 63.208727 15.406545 82.874182 40.866909a396.893091 396.893091 0 0 0-146.734545 146.757819A103.912727 103.912727 0 0 1 139.636364 221.090909M802.909091 46.545455a175.290182 175.290182 0 0 0-147.293091 81.221818A394.24 394.24 0 0 0 523.636364 104.727273c-46.429091 0-90.810182 8.424727-132.189091 23.133091A174.312727 174.312727 0 0 0 244.363636 46.545455C148.107636 46.545455 69.818182 124.858182 69.818182 221.090909a173.195636 173.195636 0 0 0 81.198545 147.293091A394.426182 394.426182 0 0 0 128 500.363636c0 122.461091 55.668364 231.889455 143.034182 304.453819L208.314182 913.454545a34.909091 34.909091 0 1 0 60.462545 34.909091l59.997091-103.912727A393.588364 393.588364 0 0 0 523.636364 896c70.912 0 137.309091-18.897455 194.862545-51.549091l59.997091 103.912727a34.839273 34.839273 0 0 0 47.685818 12.776728 34.909091 34.909091 0 0 0 12.776727-47.685819l-62.743272-108.63709c87.365818-72.564364 143.057455-181.992727 143.057454-304.453819 0-46.312727-8.378182-90.577455-22.993454-131.886545a174.359273 174.359273 0 0 0 59.694545-231.284364A174.615273 174.615273 0 0 0 802.909091 46.545455m-139.636364 442.181818H558.545455v-197.818182a34.909091 34.909091 0 1 0-69.818182 0v209.454545c0 32.069818 26.065455 58.181818 58.181818 58.181819h116.363636a34.909091 34.909091 0 1 0 0-69.818182"></path></svg>