<?xml version="1.0" standalone="no"?><!DOCTYPE svg PUBLIC "-//W3C//DTD SVG 1.1//EN" "http://www.w3.org/Graphics/SVG/1.1/DTD/svg11.dtd"><svg t="1612156112214" class="icon" viewBox="0 0 1024 1024" version="1.1" xmlns="http://www.w3.org/2000/svg" p-id="1361" xmlns:xlink="http://www.w3.org/1999/xlink" width="200" height="200"><defs><style type="text/css"></style></defs><path d="M512 320c-106.04 0-192 85.96-192 192s85.96 192 192 192 192-85.96 192-192-85.96-192-192-192z m0 288c-53.02 0-96-42.98-96-96s42.98-96 96-96 96 42.98 96 96-42.98 96-96 96z" p-id="1362"></path><path d="M768.08 64H64v896h896V255.92L768.08 64zM864 160.68l-0.68-0.68h0.68v0.68zM160 864V160h192v96h320v-96h55.56L864 296.44V864H160z" p-id="1363"></path></svg>